<svg width="212" height="52" viewBox="0 0 212 52" fill="none" xmlns="http://www.w3.org/2000/svg">
<path d="M25.3278 31L27.1921 19.6364H28.7457L26.8814 31H25.3278ZM20.2064 28.0703L20.4672 26.5167H29.2118L28.951 28.0703H20.2064ZM21.3327 31L23.1971 19.6364H24.7507L22.8864 31H21.3327ZM20.8667 24.1197L21.1219 22.5661H29.8666L29.6113 24.1197H20.8667ZM31.0285 31V19.6364H35.2899C36.1629 19.6364 36.8953 19.7991 37.4872 20.1246C38.0827 20.4502 38.5322 20.8978 38.8355 21.4674C39.1425 22.0334 39.296 22.677 39.296 23.3983C39.296 24.1271 39.1425 24.7744 38.8355 25.3404C38.5285 25.9063 38.0753 26.3521 37.4761 26.6776C36.8768 26.9994 36.1388 27.1603 35.2622 27.1603H32.4379V25.468H34.9847C35.4952 25.468 35.9132 25.3792 36.2387 25.2017C36.5642 25.0241 36.8047 24.78 36.96 24.4692C37.1191 24.1585 37.1986 23.8016 37.1986 23.3983C37.1986 22.9951 37.1191 22.64 36.96 22.333C36.8047 22.026 36.5624 21.7874 36.2332 21.6172C35.9077 21.4434 35.4878 21.3564 34.9736 21.3564H33.0871V31H31.0285ZM40.8353 31V22.4773H42.7829V23.8977H42.8717C43.027 23.4057 43.2934 23.0266 43.6707 22.7603C44.0517 22.4902 44.4863 22.3552 44.9746 22.3552C45.0856 22.3552 45.2095 22.3608 45.3464 22.3718C45.4869 22.3792 45.6034 22.3922 45.6959 22.4107V24.2584C45.6108 24.2288 45.4758 24.2029 45.2909 24.1807C45.1096 24.1548 44.9339 24.1419 44.7637 24.1419C44.3975 24.1419 44.0683 24.2214 43.7761 24.3805C43.4876 24.5358 43.2601 24.7522 43.0936 25.0297C42.9271 25.3071 42.8439 25.6271 42.8439 25.9896V31H40.8353ZM49.1703 31.172C48.6302 31.172 48.1438 31.0758 47.711 30.8835C47.2819 30.6874 46.9416 30.3989 46.69 30.0179C46.4422 29.6369 46.3183 29.1671 46.3183 28.6085C46.3183 28.1276 46.4071 27.73 46.5846 27.4156C46.7622 27.1011 47.0045 26.8496 47.3115 26.661C47.6185 26.4723 47.9644 26.3299 48.3491 26.2337C48.7375 26.1338 49.1388 26.0617 49.5531 26.0173C50.0525 25.9655 50.4576 25.9193 50.7683 25.8786C51.079 25.8342 51.3047 25.7676 51.4452 25.6788C51.5895 25.5864 51.6616 25.444 51.6616 25.2516V25.2183C51.6616 24.8003 51.5377 24.4766 51.2899 24.2473C51.042 24.0179 50.6851 23.9033 50.219 23.9033C49.727 23.9033 49.3367 24.0105 49.0482 24.2251C48.7634 24.4396 48.571 24.693 48.4712 24.9853L46.5957 24.7189C46.7437 24.2011 46.9878 23.7683 47.3281 23.4205C47.6685 23.0691 48.0846 22.8065 48.5766 22.6326C49.0686 22.4551 49.6123 22.3663 50.2079 22.3663C50.6185 22.3663 51.0272 22.4144 51.4341 22.5106C51.841 22.6067 52.2128 22.7658 52.5494 22.9877C52.886 23.206 53.1561 23.5038 53.3595 23.8811C53.5667 24.2584 53.6702 24.73 53.6702 25.296V31H51.7393V29.8292H51.6727C51.5507 30.066 51.3786 30.2879 51.1567 30.4951C50.9385 30.6985 50.6629 30.8631 50.33 30.9889C50.0007 31.111 49.6142 31.172 49.1703 31.172ZM49.6919 29.6961C50.0951 29.6961 50.4446 29.6165 50.7406 29.4575C51.0365 29.2947 51.264 29.0802 51.423 28.8138C51.5858 28.5475 51.6672 28.2571 51.6672 27.9427V26.9384C51.6043 26.9902 51.497 27.0383 51.3454 27.0827C51.1974 27.127 51.0309 27.1659 50.846 27.1992C50.661 27.2325 50.4779 27.2621 50.2967 27.288C50.1154 27.3138 49.9582 27.336 49.825 27.3545C49.5254 27.3952 49.2572 27.4618 49.0205 27.5543C48.7837 27.6468 48.5969 27.7762 48.4601 27.9427C48.3232 28.1055 48.2548 28.3163 48.2548 28.5752C48.2548 28.9451 48.3898 29.2244 48.6598 29.4131C48.9298 29.6017 49.2739 29.6961 49.6919 29.6961ZM59.2364 34.3736C58.5151 34.3736 57.8955 34.2756 57.3777 34.0795C56.8598 33.8871 56.4436 33.6282 56.1292 33.3027C55.8148 32.9772 55.5965 32.6165 55.4745 32.2207L57.2833 31.7824C57.3647 31.9488 57.4831 32.1134 57.6384 32.2762C57.7938 32.4426 58.0028 32.5795 58.2654 32.6868C58.5318 32.7978 58.8665 32.8532 59.2697 32.8532C59.8394 32.8532 60.311 32.7145 60.6846 32.4371C61.0583 32.1634 61.2451 31.7121 61.2451 31.0832V29.4686H61.1452C61.0416 29.6757 60.8899 29.8884 60.6902 30.1067C60.4941 30.3249 60.2334 30.508 59.9078 30.656C59.586 30.8039 59.181 30.8779 58.6927 30.8779C58.0379 30.8779 57.4442 30.7244 56.9116 30.4174C56.3826 30.1067 55.9609 29.6443 55.6465 29.0302C55.3357 28.4125 55.1804 27.6394 55.1804 26.7109C55.1804 25.775 55.3357 24.9853 55.6465 24.3416C55.9609 23.6943 56.3844 23.2041 56.9171 22.8712C57.4498 22.5346 58.0435 22.3663 58.6982 22.3663C59.1976 22.3663 59.6082 22.4514 59.93 22.6215C60.2556 22.788 60.5145 22.9896 60.7068 23.2263C60.8992 23.4594 61.0453 23.6795 61.1452 23.8866H61.2562V22.4773H63.237V31.1387C63.237 31.8674 63.0632 32.4704 62.7155 32.9476C62.3677 33.4248 61.8924 33.7817 61.2895 34.0185C60.6865 34.2552 60.0022 34.3736 59.2364 34.3736ZM59.2531 29.3021C59.6785 29.3021 60.041 29.1985 60.3406 28.9914C60.6403 28.7842 60.8678 28.4865 61.0231 28.0981C61.1785 27.7097 61.2562 27.2436 61.2562 26.6998C61.2562 26.1634 61.1785 25.6936 61.0231 25.2904C60.8715 24.8872 60.6458 24.5747 60.3462 24.3527C60.0503 24.1271 59.6859 24.0142 59.2531 24.0142C58.8055 24.0142 58.4319 24.1308 58.1323 24.3638C57.8326 24.5969 57.607 24.9168 57.4553 25.3237C57.3037 25.7269 57.2278 26.1856 57.2278 26.6998C57.2278 27.2214 57.3037 27.6782 57.4553 28.0703C57.6107 28.4587 57.8382 28.762 58.1378 28.9803C58.4411 29.1948 58.8129 29.3021 59.2531 29.3021ZM67.5881 31.172C67.048 31.172 66.5616 31.0758 66.1288 30.8835C65.6997 30.6874 65.3594 30.3989 65.1078 30.0179C64.86 29.6369 64.7361 29.1671 64.7361 28.6085C64.7361 28.1276 64.8249 27.73 65.0024 27.4156C65.18 27.1011 65.4223 26.8496 65.7293 26.661C66.0363 26.4723 66.3822 26.3299 66.7669 26.2337C67.1553 26.1338 67.5566 26.0617 67.9709 26.0173C68.4703 25.9655 68.8754 25.9193 69.1861 25.8786C69.4968 25.8342 69.7225 25.7676 69.863 25.6788C70.0073 25.5864 70.0794 25.444 70.0794 25.2516V25.2183C70.0794 24.8003 69.9555 24.4766 69.7077 24.2473C69.4598 24.0179 69.1029 23.9033 68.6368 23.9033C68.1448 23.9033 67.7545 24.0105 67.466 24.2251C67.1812 24.4396 66.9888 24.693 66.8889 24.9853L65.0135 24.7189C65.1615 24.2011 65.4056 23.7683 65.7459 23.4205C66.0862 23.0691 66.5024 22.8065 66.9944 22.6326C67.4864 22.4551 68.0301 22.3663 68.6257 22.3663C69.0363 22.3663 69.445 22.4144 69.8519 22.5106C70.2588 22.6067 70.6306 22.7658 70.9672 22.9877C71.3038 23.206 71.5739 23.5038 71.7773 23.8811C71.9845 24.2584 72.088 24.73 72.088 25.296V31H70.1571V29.8292H70.0905C69.9685 30.066 69.7964 30.2879 69.5745 30.4951C69.3562 30.6985 69.0807 30.8631 68.7477 30.9889C68.4185 31.111 68.032 31.172 67.5881 31.172ZM68.1097 29.6961C68.5129 29.6961 68.8624 29.6165 69.1583 29.4575C69.4543 29.2947 69.6818 29.0802 69.8408 28.8138C70.0036 28.5475 70.085 28.2571 70.085 27.9427V26.9384C70.0221 26.9902 69.9148 27.0383 69.7632 27.0827C69.6152 27.127 69.4487 27.1659 69.2638 27.1992C69.0788 27.2325 68.8957 27.2621 68.7145 27.288C68.5332 27.3138 68.376 27.336 68.2428 27.3545C67.9432 27.3952 67.675 27.4618 67.4383 27.5543C67.2015 27.6468 67.0147 27.7762 66.8779 27.9427C66.741 28.1055 66.6726 28.3163 66.6726 28.5752C66.6726 28.9451 66.8076 29.2244 67.0776 29.4131C67.3476 29.6017 67.6917 29.6961 68.1097 29.6961ZM78.2036 22.4773V24.0309H73.3041V22.4773H78.2036ZM74.5137 20.4354H76.5223V28.4365C76.5223 28.7066 76.563 28.9137 76.6444 29.058C76.7295 29.1985 76.8404 29.2947 76.9773 29.3465C77.1142 29.3983 77.2658 29.4242 77.4323 29.4242C77.5581 29.4242 77.6727 29.4149 77.7763 29.3964C77.8836 29.3779 77.965 29.3613 78.0205 29.3465L78.3589 30.9168C78.2516 30.9538 78.0981 30.9945 77.8984 31.0388C77.7023 31.0832 77.4619 31.1091 77.1771 31.1165C76.674 31.1313 76.2208 31.0555 75.8176 30.889C75.4144 30.7189 75.0945 30.4562 74.8577 30.1011C74.6247 29.746 74.51 29.3021 74.5137 28.7694V20.4354ZM79.7234 31V22.4773H81.732V31H79.7234ZM80.7333 21.2677C80.4151 21.2677 80.1414 21.1622 79.9121 20.9514C79.6827 20.7368 79.5681 20.4798 79.5681 20.1801C79.5681 19.8768 79.6827 19.6197 79.9121 19.4089C80.1414 19.1943 80.4151 19.087 80.7333 19.087C81.0551 19.087 81.3288 19.1943 81.5545 19.4089C81.7838 19.6197 81.8985 19.8768 81.8985 20.1801C81.8985 20.4798 81.7838 20.7368 81.5545 20.9514C81.3288 21.1622 81.0551 21.2677 80.7333 21.2677ZM83.6153 31V29.513L87.5604 25.6456C87.9377 25.2645 88.2521 24.9261 88.5037 24.6301C88.7552 24.3342 88.9439 24.0475 89.0696 23.7701C89.1954 23.4927 89.2583 23.1967 89.2583 22.8823C89.2583 22.5235 89.1769 22.2165 89.0142 21.9612C88.8514 21.7023 88.6276 21.5026 88.3428 21.362C88.0579 21.2214 87.7343 21.1511 87.3718 21.1511C86.9981 21.1511 86.6708 21.2288 86.3896 21.3842C86.1085 21.5359 85.8903 21.7522 85.7349 22.0334C85.5832 22.3145 85.5074 22.6493 85.5074 23.0377H83.5487C83.5487 22.3164 83.7133 21.6894 84.0426 21.1567C84.3718 20.624 84.8249 20.2116 85.402 19.9193C85.9827 19.6271 86.6486 19.481 87.3995 19.481C88.1615 19.481 88.831 19.6234 89.4081 19.9082C89.9852 20.1931 90.4328 20.5833 90.7509 21.079C91.0727 21.5747 91.2336 22.1407 91.2336 22.7769C91.2336 23.2023 91.1522 23.6203 90.9895 24.0309C90.8267 24.4415 90.54 24.8965 90.1294 25.3959C89.7225 25.8952 89.151 26.5 88.4149 27.2103L86.4562 29.2022V29.2799H91.4056V31H83.6153ZM97.3602 31.2164C96.4466 31.2164 95.6623 30.9852 95.0076 30.5228C94.3566 30.0567 93.8553 29.3853 93.5039 28.5087C93.1562 27.6283 92.9823 26.5685 92.9823 25.3293C92.986 24.0901 93.1618 23.0358 93.5095 22.1665C93.8609 21.2936 94.3621 20.6277 95.0132 20.169C95.6679 19.7103 96.4503 19.481 97.3602 19.481C98.2702 19.481 99.0526 19.7103 99.7073 20.169C100.362 20.6277 100.863 21.2936 101.211 22.1665C101.562 23.0395 101.738 24.0938 101.738 25.3293C101.738 26.5722 101.562 27.6338 101.211 28.5142C100.863 29.3909 100.362 30.0604 99.7073 30.5228C99.0563 30.9852 98.2739 31.2164 97.3602 31.2164ZM97.3602 29.4797C98.0705 29.4797 98.6309 29.1301 99.0415 28.431C99.4558 27.7281 99.6629 26.6942 99.6629 25.3293C99.6629 24.4267 99.5686 23.6684 99.3799 23.0543C99.1913 22.4403 98.9249 21.9779 98.5809 21.6672C98.2369 21.3527 97.83 21.1955 97.3602 21.1955C96.6537 21.1955 96.0951 21.5469 95.6845 22.2498C95.2739 22.9489 95.0668 23.9754 95.0631 25.3293C95.0594 26.2356 95.15 26.9976 95.335 27.6153C95.5236 28.2331 95.79 28.6992 96.134 29.0136C96.478 29.3243 96.8867 29.4797 97.3602 29.4797ZM103.422 31V29.513L107.367 25.6456C107.744 25.2645 108.058 24.9261 108.31 24.6301C108.562 24.3342 108.75 24.0475 108.876 23.7701C109.002 23.4927 109.065 23.1967 109.065 22.8823C109.065 22.5235 108.983 22.2165 108.82 21.9612C108.658 21.7023 108.434 21.5026 108.149 21.362C107.864 21.2214 107.541 21.1511 107.178 21.1511C106.804 21.1511 106.477 21.2288 106.196 21.3842C105.915 21.5359 105.697 21.7522 105.541 22.0334C105.39 22.3145 105.314 22.6493 105.314 23.0377H103.355C103.355 22.3164 103.52 21.6894 103.849 21.1567C104.178 20.624 104.631 20.2116 105.208 19.9193C105.789 19.6271 106.455 19.481 107.206 19.481C107.968 19.481 108.637 19.6234 109.214 19.9082C109.792 20.1931 110.239 20.5833 110.557 21.079C110.879 21.5747 111.04 22.1407 111.04 22.7769C111.04 23.2023 110.959 23.6203 110.796 24.0309C110.633 24.4415 110.346 24.8965 109.936 25.3959C109.529 25.8952 108.957 26.5 108.221 27.2103L106.263 29.2022V29.2799H111.212V31H103.422ZM112.517 28.8915V27.2547L117.339 19.6364H118.704V21.9668H117.871L114.625 27.1104V27.1992H121.356V28.8915H112.517ZM117.938 31V28.3921L117.96 27.6597V19.6364H119.902V31H117.938ZM130.413 34.3736C129.692 34.3736 129.072 34.2756 128.554 34.0795C128.036 33.8871 127.62 33.6282 127.306 33.3027C126.991 32.9772 126.773 32.6165 126.651 32.2207L128.46 31.7824C128.541 31.9488 128.66 32.1134 128.815 32.2762C128.97 32.4426 129.179 32.5795 129.442 32.6868C129.708 32.7978 130.043 32.8532 130.446 32.8532C131.016 32.8532 131.488 32.7145 131.861 32.4371C132.235 32.1634 132.422 31.7121 132.422 31.0832V29.4686H132.322C132.218 29.6757 132.067 29.8884 131.867 30.1067C131.671 30.3249 131.41 30.508 131.084 30.656C130.763 30.8039 130.358 30.8779 129.869 30.8779C129.215 30.8779 128.621 30.7244 128.088 30.4174C127.559 30.1067 127.137 29.6443 126.823 29.0302C126.512 28.4125 126.357 27.6394 126.357 26.7109C126.357 25.775 126.512 24.9853 126.823 24.3416C127.137 23.6943 127.561 23.2041 128.094 22.8712C128.626 22.5346 129.22 22.3663 129.875 22.3663C130.374 22.3663 130.785 22.4514 131.107 22.6215C131.432 22.788 131.691 22.9896 131.883 23.2263C132.076 23.4594 132.222 23.6795 132.322 23.8866H132.433V22.4773H134.414V31.1387C134.414 31.8674 134.24 32.4704 133.892 32.9476C133.544 33.4248 133.069 33.7817 132.466 34.0185C131.863 34.2552 131.179 34.3736 130.413 34.3736ZM130.43 29.3021C130.855 29.3021 131.218 29.1985 131.517 28.9914C131.817 28.7842 132.044 28.4865 132.2 28.0981C132.355 27.7097 132.433 27.2436 132.433 26.6998C132.433 26.1634 132.355 25.6936 132.2 25.2904C132.048 24.8872 131.822 24.5747 131.523 24.3527C131.227 24.1271 130.862 24.0142 130.43 24.0142C129.982 24.0142 129.608 24.1308 129.309 24.3638C129.009 24.5969 128.784 24.9168 128.632 25.3237C128.48 25.7269 128.404 26.1856 128.404 26.6998C128.404 27.2214 128.48 27.6782 128.632 28.0703C128.787 28.4587 129.015 28.762 129.314 28.9803C129.618 29.1948 129.989 29.3021 130.43 29.3021ZM140.03 31.1665C139.197 31.1665 138.476 30.9834 137.866 30.6171C137.255 30.2509 136.782 29.7386 136.445 29.0802C136.112 28.4217 135.946 27.6523 135.946 26.7719C135.946 25.8915 136.112 25.1203 136.445 24.4581C136.782 23.796 137.255 23.2818 137.866 22.9156C138.476 22.5494 139.197 22.3663 140.03 22.3663C140.862 22.3663 141.583 22.5494 142.194 22.9156C142.804 23.2818 143.276 23.796 143.609 24.4581C143.945 25.1203 144.114 25.8915 144.114 26.7719C144.114 27.6523 143.945 28.4217 143.609 29.0802C143.276 29.7386 142.804 30.2509 142.194 30.6171C141.583 30.9834 140.862 31.1665 140.03 31.1665ZM140.041 29.5574C140.492 29.5574 140.869 29.4334 141.173 29.1856C141.476 28.9341 141.702 28.5974 141.85 28.1757C142.001 27.754 142.077 27.2843 142.077 26.7664C142.077 26.2448 142.001 25.7732 141.85 25.3515C141.702 24.9261 141.476 24.5876 141.173 24.3361C140.869 24.0845 140.492 23.9588 140.041 23.9588C139.578 23.9588 139.194 24.0845 138.887 24.3361C138.583 24.5876 138.356 24.9261 138.204 25.3515C138.056 25.7732 137.982 26.2448 137.982 26.7664C137.982 27.2843 138.056 27.754 138.204 28.1757C138.356 28.5974 138.583 28.9341 138.887 29.1856C139.194 29.4334 139.578 29.5574 140.041 29.5574ZM152.394 24.73L150.563 24.9298C150.512 24.7448 150.421 24.571 150.291 24.4082C150.166 24.2454 149.996 24.1141 149.781 24.0142C149.566 23.9144 149.304 23.8644 148.993 23.8644C148.575 23.8644 148.224 23.9551 147.939 24.1363C147.658 24.3176 147.519 24.5525 147.523 24.841C147.519 25.0888 147.61 25.2904 147.795 25.4458C147.983 25.6012 148.294 25.7288 148.727 25.8287L150.181 26.1394C150.987 26.3132 151.586 26.5888 151.978 26.9661C152.374 27.3434 152.574 27.8373 152.578 28.4476C152.574 28.984 152.417 29.4575 152.106 29.8681C151.799 30.275 151.372 30.5931 150.824 30.8224C150.277 31.0518 149.648 31.1665 148.938 31.1665C147.894 31.1665 147.055 30.9482 146.419 30.5117C145.782 30.0715 145.403 29.4593 145.281 28.6751L147.24 28.4865C147.329 28.8712 147.517 29.1615 147.806 29.3576C148.094 29.5537 148.47 29.6517 148.932 29.6517C149.409 29.6517 149.792 29.5537 150.081 29.3576C150.373 29.1615 150.519 28.9193 150.519 28.6307C150.519 28.3866 150.425 28.185 150.236 28.0259C150.051 27.8669 149.763 27.7448 149.37 27.6597L147.917 27.3545C147.099 27.1844 146.494 26.8977 146.102 26.4945C145.71 26.0876 145.516 25.5734 145.52 24.952C145.516 24.4267 145.658 23.9717 145.947 23.587C146.239 23.1986 146.644 22.899 147.162 22.6881C147.684 22.4736 148.285 22.3663 148.965 22.3663C149.964 22.3663 150.75 22.579 151.324 23.0044C151.901 23.4298 152.258 24.005 152.394 24.73ZM160.81 24.73L158.979 24.9298C158.927 24.7448 158.836 24.571 158.707 24.4082C158.581 24.2454 158.411 24.1141 158.196 24.0142C157.982 23.9144 157.719 23.8644 157.409 23.8644C156.991 23.8644 156.639 23.9551 156.354 24.1363C156.073 24.3176 155.934 24.5525 155.938 24.841C155.934 25.0888 156.025 25.2904 156.21 25.4458C156.399 25.6012 156.709 25.7288 157.142 25.8287L158.596 26.1394C159.402 26.3132 160.002 26.5888 160.394 26.9661C160.79 27.3434 160.989 27.8373 160.993 28.4476C160.989 28.984 160.832 29.4575 160.521 29.8681C160.214 30.275 159.787 30.5931 159.24 30.8224C158.692 31.0518 158.063 31.1665 157.353 31.1665C156.31 31.1665 155.47 30.9482 154.834 30.5117C154.198 30.0715 153.819 29.4593 153.697 28.6751L155.655 28.4865C155.744 28.8712 155.933 29.1615 156.221 29.3576C156.51 29.5537 156.885 29.6517 157.348 29.6517C157.825 29.6517 158.208 29.5537 158.496 29.3576C158.788 29.1615 158.934 28.9193 158.934 28.6307C158.934 28.3866 158.84 28.185 158.651 28.0259C158.467 27.8669 158.178 27.7448 157.786 27.6597L156.332 27.3545C155.515 27.1844 154.91 26.8977 154.518 26.4945C154.126 26.0876 153.931 25.5734 153.935 24.952C153.931 24.4267 154.074 23.9717 154.362 23.587C154.655 23.1986 155.06 22.899 155.578 22.6881C156.099 22.4736 156.7 22.3663 157.381 22.3663C158.38 22.3663 159.166 22.579 159.739 23.0044C160.316 23.4298 160.673 24.005 160.81 24.73ZM162.489 31V22.4773H164.498V31H162.489ZM163.499 21.2677C163.181 21.2677 162.907 21.1622 162.678 20.9514C162.449 20.7368 162.334 20.4798 162.334 20.1801C162.334 19.8768 162.449 19.6197 162.678 19.4089C162.907 19.1943 163.181 19.087 163.499 19.087C163.821 19.087 164.095 19.1943 164.32 19.4089C164.55 19.6197 164.664 19.8768 164.664 20.1801C164.664 20.4798 164.55 20.7368 164.32 20.9514C164.095 21.1622 163.821 21.2677 163.499 21.2677ZM166.403 34.196V22.4773H168.379V23.8866H168.495C168.599 23.6795 168.745 23.4594 168.934 23.2263C169.122 22.9896 169.377 22.788 169.699 22.6215C170.021 22.4514 170.432 22.3663 170.931 22.3663C171.589 22.3663 172.183 22.5346 172.712 22.8712C173.245 23.2041 173.667 23.698 173.977 24.3527C174.292 25.0038 174.449 25.8028 174.449 26.7497C174.449 27.6856 174.295 28.4809 173.988 29.1357C173.681 29.7904 173.263 30.2898 172.734 30.6338C172.205 30.9778 171.606 31.1498 170.937 31.1498C170.448 31.1498 170.043 31.0684 169.721 30.9057C169.4 30.7429 169.141 30.5469 168.945 30.3175C168.752 30.0845 168.602 29.8644 168.495 29.6572H168.412V34.196H166.403ZM168.373 26.7386C168.373 27.2898 168.451 27.7725 168.606 28.1868C168.765 28.6011 168.993 28.9248 169.289 29.1578C169.588 29.3872 169.951 29.5019 170.376 29.5019C170.82 29.5019 171.192 29.3835 171.491 29.1468C171.791 28.9063 172.017 28.5789 172.168 28.1646C172.324 27.7466 172.401 27.2713 172.401 26.7386C172.401 26.2097 172.326 25.7399 172.174 25.3293C172.022 24.9187 171.797 24.5969 171.497 24.3638C171.197 24.1308 170.824 24.0142 170.376 24.0142C169.947 24.0142 169.583 24.1271 169.283 24.3527C168.983 24.5784 168.756 24.8946 168.601 25.3015C168.449 25.7084 168.373 26.1875 168.373 26.7386ZM182.745 24.73L180.914 24.9298C180.862 24.7448 180.772 24.571 180.642 24.4082C180.516 24.2454 180.346 24.1141 180.132 24.0142C179.917 23.9144 179.654 23.8644 179.344 23.8644C178.926 23.8644 178.574 23.9551 178.289 24.1363C178.008 24.3176 177.87 24.5525 177.873 24.841C177.87 25.0888 177.96 25.2904 178.145 25.4458C178.334 25.6012 178.645 25.7288 179.077 25.8287L180.531 26.1394C181.338 26.3132 181.937 26.5888 182.329 26.9661C182.725 27.3434 182.924 27.8373 182.928 28.4476C182.924 28.984 182.767 29.4575 182.457 29.8681C182.149 30.275 181.722 30.5931 181.175 30.8224C180.627 31.0518 179.998 31.1665 179.288 31.1665C178.245 31.1665 177.405 30.9482 176.769 30.5117C176.133 30.0715 175.754 29.4593 175.632 28.6751L177.59 28.4865C177.679 28.8712 177.868 29.1615 178.156 29.3576C178.445 29.5537 178.82 29.6517 179.283 29.6517C179.76 29.6517 180.143 29.5537 180.431 29.3576C180.723 29.1615 180.87 28.9193 180.87 28.6307C180.87 28.3866 180.775 28.185 180.587 28.0259C180.402 27.8669 180.113 27.7448 179.721 27.6597L178.267 27.3545C177.45 27.1844 176.845 26.8977 176.453 26.4945C176.061 26.0876 175.867 25.5734 175.87 24.952C175.867 24.4267 176.009 23.9717 176.298 23.587C176.59 23.1986 176.995 22.899 177.513 22.6881C178.034 22.4736 178.635 22.3663 179.316 22.3663C180.315 22.3663 181.101 22.579 181.674 23.0044C182.251 23.4298 182.608 24.005 182.745 24.73ZM191.16 24.73L189.329 24.9298C189.278 24.7448 189.187 24.571 189.058 24.4082C188.932 24.2454 188.762 24.1141 188.547 24.0142C188.333 23.9144 188.07 23.8644 187.759 23.8644C187.341 23.8644 186.99 23.9551 186.705 24.1363C186.424 24.3176 186.285 24.5525 186.289 24.841C186.285 25.0888 186.376 25.2904 186.561 25.4458C186.749 25.6012 187.06 25.7288 187.493 25.8287L188.947 26.1394C189.753 26.3132 190.352 26.5888 190.744 26.9661C191.14 27.3434 191.34 27.8373 191.344 28.4476C191.34 28.984 191.183 29.4575 190.872 29.8681C190.565 30.275 190.138 30.5931 189.59 30.8224C189.043 31.0518 188.414 31.1665 187.704 31.1665C186.661 31.1665 185.821 30.9482 185.185 30.5117C184.548 30.0715 184.169 29.4593 184.047 28.6751L186.006 28.4865C186.095 28.8712 186.283 29.1615 186.572 29.3576C186.86 29.5537 187.236 29.6517 187.698 29.6517C188.175 29.6517 188.558 29.5537 188.847 29.3576C189.139 29.1615 189.285 28.9193 189.285 28.6307C189.285 28.3866 189.191 28.185 189.002 28.0259C188.817 27.8669 188.529 27.7448 188.136 27.6597L186.683 27.3545C185.865 27.1844 185.26 26.8977 184.868 26.4945C184.476 26.0876 184.282 25.5734 184.286 24.952C184.282 24.4267 184.424 23.9717 184.713 23.587C185.005 23.1986 185.41 22.899 185.928 22.6881C186.45 22.4736 187.051 22.3663 187.731 22.3663C188.73 22.3663 189.516 22.579 190.09 23.0044C190.667 23.4298 191.024 24.005 191.16 24.73Z" fill="#FFFCE1"/>
<g clip-path="url(#clip0_29_387)">
<path d="M17.405 50.6715H13.6313C9.14877 50.6715 5.50634 47.0226 5.50634 42.5468V31.7509C5.50634 28.7189 3.03867 26.2513 0.0065918 26.2513V23.6262C3.03867 23.6262 5.50634 21.1585 5.50634 18.1265V8.1379C5.49978 3.64893 9.14877 0 13.6313 0H17.405V2.62513H13.6313C10.5992 2.62513 8.13152 5.09275 8.13152 8.12477V18.1134C8.13152 20.9616 6.65485 23.4752 4.43002 24.9256C6.65485 26.376 8.13152 28.8895 8.13152 31.7378V42.5336C8.13152 45.5657 10.5992 48.0333 13.6313 48.0333H17.405V50.6715Z" fill="#FFFCE1"/>
</g>
<g clip-path="url(#clip1_29_387)">
<path d="M194.385 0.518471H198.159C202.641 0.518471 206.284 4.1674 206.284 8.64324V19.4391C206.284 22.4711 208.751 24.9387 211.783 24.9387V27.5639C208.751 27.5639 206.284 30.0315 206.284 33.0635V43.0521C206.29 47.5411 202.641 51.19 198.159 51.19H194.385V48.5649H198.159C201.191 48.5649 203.658 46.0973 203.658 43.0652V33.0766C203.658 30.2284 205.135 27.7148 207.36 26.2644C205.135 24.814 203.658 22.3005 203.658 19.4522V8.65637C203.658 5.62434 201.191 3.15672 198.159 3.15672H194.385V0.518471Z" fill="#FFFCE1"/>
</g>
<defs>
<clipPath id="clip0_29_387">
<rect width="17.72" height="51.19" fill="white"/>
</clipPath>
<clipPath id="clip1_29_387">
<rect width="17.72" height="51.19" fill="white" transform="matrix(-1 0 0 -1 211.79 51.19)"/>
</clipPath>
</defs>
</svg>
